<svg width="176" height="164" viewBox="0 0 176 164" fill="none" xmlns="http://www.w3.org/2000/svg">
<path d="M24 29L28.5 26.5L35 21.5L40.5 16.5L48.5 10.5L56 6.5L61 4.5L70 2L71.5 1H76H80.5H85H89.5H93.5H97H99L102 1.5L104 2.5L107 3L110.5 4L114 5L117 6L119.5 6.5L125 8.5L128 9.5L131.5 11L135 12.5L138 14L141 15L143.5 17.5L146.5 20.5L149 23.5L151.5 26.5L153.5 29L156 32L158 34.5L159.5 37.5L161 41L162.5 44L164 48L165 51L166.5 54.5L168 57.5L169 60.5L170 62.5V65.5L167 66H165L163.5 63.5L162.5 60.5L162 57.5L160.5 55L159.5 53L158 51L157 48.5L155.5 45.5L154.5 43L153.5 41L151.5 38.5L150 35.5L148 33L146.5 30.5L144.5 28L142.5 26.5L140.5 24.5L139 23L137.5 21.5L136 20.5L132.5 19L129.5 18.5L127 17L125 15.5L122.5 14L120 13L117.5 12L114 11L110.5 10L108 9.5L104 9L101.5 8L99 7.5L96.5 6.5L93.5 6L92.5 5.5H90.5H87.5H84.5H82H79H76L74 6.5L72 7.5L70 9L67.5 10.5L64.5 11.5L59.5 13L55 18L49 20.5L44 25L35.5 30L33 35L28.5 38.5L24.5 45L23 52.5H11L16 39L18.5 35.5L19.5 34.5L20.5 33L21.5 31.5L22.5 30L24 29Z" fill="#523827" fill-opacity="0.9"/>
<path d="M20 105H13.5L14 108.5L16 117L23.5 128.5L32 138.5L40.5 145.5L45.5 151L56.5 154.5L71.5 161.5L85 163H98L114.5 161.5L118.5 157.5L128 154.5L130.5 151H135.5L138 148.5L140.5 146.5L144 143.5L154 135.5L158.5 130V122.5L166 110L163.5 105H159L155.5 114.5L149.5 124L147.5 126.5L143.5 131L140 134.5L128.5 145.5H123L117 150.5L112.5 152.5H75.5L62 147.5L55 145.5L48.5 141.5L43.5 138L35.5 129L33 124L28 120L23 114.5L20 105Z" fill="#523827" fill-opacity="0.9" stroke="black"/>
<path d="M26.5 104.5L20 105L23 114.5L28.5 120L33 123.5L36 129L43.5 138L46 139.5L55 145.5L61 147L66.5 149L76 152H113L117 150.5L122.5 145.5H128.5L138 136L143.5 130.5L150 123L155.5 114.5L159 105L154 104.5L147 106H138L133 106.5L128 106L122.5 104.5H116H110L105 106L98 106.5H91.5H85.5L77.5 106L69.5 104.5L65 105L56.5 104.5L54 106L45.5 106.5L36 106L26.5 104.5Z" fill="#D8AC71" stroke="black"/>
<path d="M54 106L57 104.5L65 105L69.5 104.5L77.5 106L85.5 106.5H98L105 106L110 104.5H122.5L128 106L123 115L110.5 122.5L99 125H80.5L71.5 122.5L65 119L59.5 115L54 106Z" fill="#C49667" stroke="black"/>
<path d="M158 66H164.5L162 58.5L159 52.5L155.5 46.5L153.5 41L146 30L140.5 24.5L136 20.5L128.5 18L120.5 13L112.5 10.5L102.5 8.5L92.5 5.5H75.5L67.5 10.5L59.5 13L55 18L49 20.5L44 25L35.5 30L33 35L28.5 38.5L24.5 45L23 52.5L26.5 62.5L32 66.5L39 65L48.5 66.5H56.5H65H71.5H110.5L116.5 63.5L118.5 65L126.5 66.5L130.5 65H142.5L150 66.5L158 66Z" fill="#D8AC71" stroke="black"/>
<path d="M56.5 60V66L60 66.5L64.5 67H70.5L73.5 66.5L77 66L83 66.5L89 67L110.5 66.5L116.5 63.5L118.5 65L126.5 66.5L123 61L119 55.5L114.5 50L105 42H93L85 44.5H78L71.5 46.5L65 50L62 54.5L56.5 60Z" fill="#C49667" stroke="black"/>
<path d="M170 66.5V62.5L164.5 50L158.5 35L142.5 16L123 7.5L99 1H71.5L65 3L54 7.5L45.5 12.5L36 20.5L29.5 26L23 29L16 39L12 50M14 108.5L16 117L23 128L32 138.5L40.5 145.5L45.5 151L56.5 154.5L71.5 161.5L85 163H97.5L114.5 161.5L118.5 157.5L128 154.5L130.5 151H135.5L138 148.5L147 141L154 135.5L158.5 130V122.5L166 110L163.5 105M26.5 62.5L29.5 53L36 42L40.5 35L45.5 31L51.5 29L56.5 26L65 22.5L69 20.5M80.5 12.5H89H97.5L107 16L114.5 18L123 20.5L130.5 26L135.5 31L142.5 39L147 46.5L152 53L154 60L156 62.5L158.5 66.5M32 66.5V60L36 53L40.5 44.5L45.5 42L48.5 39L54 35L61.5 31L69 26L75.5 22.5L80.5 20.5L89 18H97.5L102 20.5L107 22.5L114.5 26L120.5 29L126.5 32.5L130.5 37L135.5 42L138 50L142.5 53L147 60L150 66.5M39 65L40.5 58L45.5 53L51.5 46.5L56.5 42L61.5 39L69 37M48.5 66.5L51.5 60L56.5 53M80.5 31L89 26H97.5L107 29L114.5 32.5L120.5 37L128 42L132.5 50L135.5 58L142.5 65M71.5 66.5L75.5 60L80.5 58H87H93H99L107 62.5L110.5 66.5M65 66.5V60L69 55L75.5 53L80.5 50H87H93H99H105L110.5 55L113 61L118.5 65M56.5 66.5V60L61.5 55L65 50L71.5 46.5L78.5 44.5H85L93 42H99H105L110.5 46.5L114.5 50L118.5 55L123 61L126.5 66.5M78.5 39H87L93 37H99H105L113 42L118.5 46.5L123 53L126.5 60L130.5 65M26.5 104L29.5 110L36 115L39 122.5L45.5 128L48.5 135.5L54 141H61.5L69 143H78.5L83 145.5M89 148.5H93H99H105L110.5 145.5L118.5 143L126.5 138.5L132.5 133.5L138 128L142.5 122.5L147 117L152 110L154 104M69 104L74 108.5L80.5 110M99 110L105 108.5L110.5 104M56.5 104L61.5 110L69 115L74 117H80.5M89 117H99H107L113 115L118.5 110L123 104M36 106L40.5 110L45.5 117L48.5 122.5L51.5 128L54 133.5L61.5 135.5H69H75.5L83 138.5M93 143L102 141L110.5 138.5L118.5 135.5L126.5 130L132.5 125L138 117L142.5 110L147 106M45.5 106L48.5 115L54 119L59.5 125L65 128L71.5 130L78.5 133.5H83M97.5 135.5L105 133.5L114.5 130L123 125L130.5 117L135.5 108.5L138 106M54 106L59.5 115L65 119L71.5 122.5L80.5 125H89H99L110.5 122.5L116.5 119L123 115L128 106" stroke="black"/>
<path d="M15.5 105H20L23 114.5L28.5 120.5L33 124L35.5 129L39.5 133.5L44 138.5L49 142L55 145.5L61.5 147.5L69.5 150.5L75.5 152.5H85.5H95H102.5H107.5H112.5L117 150.5L123 145.5H128.5L136 138.5L143.5 131L149.5 124L155.5 114.5L159 105H164.5M170 66H164.5L162 58.5L159 52.5L155.5 46.5L153.5 41L149.5 35L146 30L141 25L136 20.5L128.5 18L120.5 13L112.5 10.5L102.5 8.5L92.5 5.5H85.5H75.5L67.5 10.5L59.5 13L55 18L49 20.5L44 25L35.5 30L33 35L28.5 38.5L24.5 45L23 52.5H17.5H13.5" stroke="black"/>
<path d="M12 50L11 52.5H13.5" stroke="black"/>
<path d="M15.5 105H13.5L14 108.5" stroke="black"/>
<path d="M1 104L12.5 59L17 85.0795L25.5 67.1818L30 104" stroke="#344717" stroke-width="2"/>
<path d="M33 104L37.7143 88M37.7143 88L42.4286 72L51 104L37.7143 88Z" stroke="#344717" stroke-width="2"/>
<path d="M54 104V88.4407M54 88.4407V70L63 78.6441L54 88.4407Z" stroke="#344717" stroke-width="2"/>
<path d="M66 70V104L71.5 87M77 70L71.5 87M71.5 87L77 104" stroke="#344717" stroke-width="2"/>
<path d="M88 104H80V87M80 87V70H88M80 87H84.16" stroke="#344717" stroke-width="2"/>
<path d="M137 104H129V87M129 87V70H137M129 87H133.16" stroke="#344717" stroke-width="2"/>
<path d="M89 70H95M101 70H95M95 70V104" stroke="#344717" stroke-width="2"/>
<path d="M107 104L116.194 65L126 104" stroke="#344717" stroke-width="2"/>
<path d="M148.363 70.0113C137.206 75.9926 134.049 93.1851 148.479 102.956" stroke="#344717" stroke-width="2"/>
<path d="M152 74H159.868V87.5M159.868 87.5H152M159.868 87.5V101H152M167.132 101H175V87.5H167.132V74H175" stroke="#344717" stroke-width="2"/>
<path d="M165.331 104.171C165.258 104.148 165.138 104.107 165.092 104.191C165.065 104.242 165.013 104.257 164.974 104.294C164.951 104.315 164.925 104.341 164.906 104.369C164.894 104.388 164.826 104.368 164.806 104.38C164.782 104.394 164.79 104.447 164.791 104.47C164.792 104.495 164.825 104.511 164.837 104.53C164.842 104.537 164.836 104.47 164.835 104.461C164.834 104.448 164.797 104.389 164.786 104.38C164.764 104.362 164.744 104.347 164.724 104.326C164.685 104.287 164.595 104.331 164.578 104.282C164.557 104.223 164.549 104.298 164.552 104.321C164.561 104.38 164.604 104.433 164.642 104.475C164.682 104.518 164.711 104.578 164.755 104.622" stroke="white" stroke-linecap="round"/>
<path d="M165.065 105.154C165.025 105.19 164.893 105.055 164.853 105.038C164.801 105.016 164.774 104.977 164.751 104.931C164.734 104.896 164.714 104.839 164.685 104.813C164.662 104.793 164.634 104.725 164.624 104.695C164.611 104.653 164.583 104.616 164.559 104.58C164.546 104.562 164.547 104.537 164.538 104.516C164.527 104.489 164.508 104.473 164.493 104.448C164.468 104.408 164.449 104.376 164.419 104.339" stroke="white" stroke-linecap="round"/>
<path d="M165.154 105.508C165.154 105.478 165.147 105.452 165.125 105.43C165.117 105.422 165.12 105.405 165.105 105.402C165.094 105.4 165.085 105.395 165.083 105.382C165.082 105.37 165.013 105.335 164.996 105.329C164.982 105.323 164.972 105.313 164.959 105.304C164.946 105.295 164.914 105.292 164.906 105.282C164.867 105.234 164.833 105.178 164.808 105.123C164.78 105.059 164.76 104.99 164.713 104.939C164.701 104.926 164.695 104.905 164.693 104.888C164.69 104.869 164.669 104.863 164.667 104.844C164.663 104.808 164.639 104.774 164.624 104.743C164.612 104.714 164.609 104.672 164.589 104.647C164.579 104.634 164.552 104.57 164.552 104.556C164.552 104.537 164.544 104.523 164.532 104.509C164.516 104.49 164.522 104.47 164.511 104.45C164.494 104.417 164.465 104.393 164.45 104.361C164.439 104.337 164.41 104.306 164.41 104.282C164.41 104.264 164.395 104.268 164.385 104.257C164.374 104.244 164.363 104.213 164.357 104.197" stroke="white" stroke-linecap="round"/>
<path d="M164.764 105.304C164.759 105.261 164.74 105.195 164.718 105.154C164.703 105.125 164.681 105.092 164.675 105.061C164.672 105.045 164.663 105.019 164.656 105.003C164.649 104.988 164.635 104.979 164.631 104.967C164.619 104.929 164.606 104.89 164.578 104.862C164.465 104.742 164.448 104.574 164.366 104.436" stroke="white" stroke-linecap="round"/>
<path d="M56.9749 102.925C56.9749 103.093 56.7706 103.415 56.9749 103.517" stroke="white" stroke-linecap="round"/>
<path d="M57.4056 101.632C57.4056 101.739 57.229 102.002 57.1603 102.09C57.0555 102.225 56.9749 102.508 56.9749 102.682C56.9749 102.862 56.7595 102.925 56.7595 103.14C56.7595 103.234 56.7131 103.54 56.6518 103.571" stroke="white" stroke-linecap="round"/>
<path d="M69.8965 101.74C69.8615 101.845 69.7219 101.812 69.6692 101.902C69.615 101.994 69.5255 102.068 69.4658 102.159C69.32 102.382 69.2504 102.599 69.2504 102.871C69.2504 103.064 69.2504 103.258 69.2504 103.451C69.2504 103.68 69.319 103.615 69.4658 103.517" stroke="white" stroke-linecap="round"/>
<path d="M69.8965 102.817C69.8965 103.136 69.9618 103.384 69.6812 103.571" stroke="white" stroke-linecap="round"/>
<path d="M69.0351 102.763V103.624" stroke="white" stroke-linecap="round"/>
<path d="M56.5442 102.763C56.5328 102.944 56.3353 103.013 56.3288 103.182C56.3238 103.311 56.3288 103.441 56.3288 103.571" stroke="white" stroke-linecap="round"/>
<path d="M45.8681 105.245C45.9086 105.247 45.8802 105.386 45.8785 105.422C45.875 105.492 45.7503 105.453 45.7127 105.453C45.699 105.453 45.6264 105.444 45.6198 105.459C45.6011 105.501 45.646 105.494 45.6706 105.494C45.7303 105.494 45.785 105.474 45.8473 105.474" stroke="white" stroke-linecap="round"/>
<path d="M45.8265 105.214C45.8585 105.246 45.8889 105.295 45.8889 105.338C45.8889 105.363 45.8805 105.405 45.8912 105.427C45.8988 105.444 45.9135 105.454 45.92 105.474" stroke="white" stroke-linecap="round"/>
<path d="M26.9369 103.143C26.9328 103.247 26.9135 103.347 26.9135 103.454C26.9135 103.51 26.9215 103.506 26.9773 103.506C27.0403 103.506 27.0239 103.52 27.0541 103.565" stroke="white" stroke-linecap="round"/>
<path d="M26.9252 103.284C26.844 103.284 26.766 103.308 26.7403 103.392C26.7336 103.414 26.7249 103.476 26.6953 103.482C26.6579 103.491 26.6229 103.482 26.5853 103.495" stroke="white" stroke-linecap="round"/>
<path d="M26.7494 103.448C26.7873 103.448 26.7963 103.484 26.7963 103.518" stroke="white" stroke-linecap="round"/>
<path d="M27.0776 103.518C27.0785 103.525 27.1273 103.575 27.0893 103.577C27.0544 103.579 27.0202 103.565 26.9838 103.565C26.9114 103.565 26.8793 103.518 26.808 103.518" stroke="white" stroke-linecap="round"/>
<path d="M153.538 103.274C153.538 103.337 153.538 103.401 153.538 103.464C153.538 103.487 153.547 103.522 153.518 103.524C153.498 103.525 153.465 103.56 153.458 103.574" stroke="white" stroke-linecap="round"/>
<path d="M153.508 103.494C153.529 103.494 153.574 103.486 153.592 103.5C153.611 103.515 153.627 103.533 153.647 103.544" stroke="white" stroke-linecap="round"/>
<path d="M153.817 103.494C153.84 103.494 153.837 103.504 153.837 103.524" stroke="white" stroke-linecap="round"/>
<path d="M153.318 103.374C153.318 103.455 153.358 103.528 153.358 103.604" stroke="white" stroke-linecap="round"/>
<path d="M122.634 102.985C122.605 103.075 122.583 103.152 122.583 103.247C122.583 103.296 122.605 103.431 122.532 103.431" stroke="white" stroke-linecap="round"/>
<path d="M122.698 103.329C122.735 103.329 122.774 103.354 122.774 103.393C122.774 103.441 122.782 103.458 122.8 103.495" stroke="white" stroke-linecap="round"/>
<path d="M122.634 103.431C122.57 103.431 122.585 103.482 122.57 103.533" stroke="white" stroke-linecap="round"/>
<path d="M122.928 103.431C122.967 103.435 122.977 103.481 122.991 103.513C123.007 103.548 123.049 103.546 123.081 103.546" stroke="white" stroke-linecap="round"/>
<path d="M123.03 103.572C122.997 103.572 122.963 103.573 122.93 103.572C122.892 103.57 122.879 103.533 122.838 103.533" stroke="white" stroke-linecap="round"/>
<path d="M122.545 103.47C122.579 103.47 122.661 103.499 122.672 103.533" stroke="white" stroke-linecap="round"/>
<path d="M122.813 103.508C122.807 103.465 122.787 103.53 122.787 103.546" stroke="white" stroke-linecap="round"/>
<path d="M123.234 103.521C123.234 103.566 123.208 103.594 123.208 103.636" stroke="white" stroke-linecap="round"/>
<path d="M110.292 103.254C110.246 103.254 110.217 103.315 110.196 103.348C110.183 103.368 110.165 103.381 110.149 103.397C110.134 103.412 110.11 103.425 110.099 103.441" stroke="white" stroke-linecap="round"/>
<path d="M110.292 103.364C110.33 103.364 110.325 103.395 110.325 103.427C110.325 103.438 110.336 103.439 110.336 103.452C110.336 103.467 110.336 103.481 110.336 103.496" stroke="white" stroke-linecap="round"/>
<path d="M110.022 103.287C110.011 103.299 110.003 103.299 109.989 103.306C109.986 103.307 109.962 103.322 109.962 103.323C109.947 103.349 109.911 103.36 109.896 103.388C109.887 103.406 109.853 103.431 109.852 103.451C109.851 103.474 109.842 103.495 109.835 103.518" stroke="white" stroke-linecap="round"/>
<path d="M110.132 103.408C110.148 103.412 110.125 103.48 110.121 103.49" stroke="white" stroke-linecap="round"/>
<path d="M110.242 103.452C110.255 103.455 110.247 103.484 110.242 103.49" stroke="white" stroke-linecap="round"/>
<path d="M110.468 103.408C110.442 103.41 110.446 103.48 110.446 103.501" stroke="white" stroke-linecap="round"/>
<path d="M110.006 103.496V103.501" stroke="white" stroke-linecap="round"/>
<path d="M109.621 103.463V103.556" stroke="white" stroke-linecap="round"/>
<path d="M109.511 103.545V103.589" stroke="white" stroke-linecap="round"/>
<path d="M128.552 67.9933H128.474" stroke="white" stroke-linecap="round"/>
<path d="M128.012 68.0704C127.944 67.9943 127.928 67.8844 127.849 67.8218C127.739 67.7351 127.828 67.4793 127.66 67.4554C127.606 67.4476 127.503 67.4769 127.454 67.4489C127.392 67.4134 127.429 67.3761 127.336 67.3761C127.142 67.3761 127.204 67.5182 127.086 67.5775C127.047 67.5967 126.854 67.849 126.854 67.7318C126.854 67.5957 127.008 67.4918 127.124 67.4918C127.314 67.4918 127.491 67.251 127.587 67.106" stroke="white"/>
<path d="M127.439 67.6592C127.432 67.6342 127.41 67.6138 127.401 67.5879C127.395 67.5683 127.388 67.5516 127.388 67.5308C127.388 67.5009 127.383 67.4714 127.383 67.4412C127.383 67.4015 127.383 67.3619 127.383 67.3222C127.383 67.2918 127.369 67.2674 127.369 67.2394" stroke="white" stroke-linecap="round"/>
<path d="M127.034 67.5507C127.018 67.5369 126.968 67.54 126.968 67.5177C126.968 67.4833 127.002 67.5428 127.01 67.5507" stroke="white" stroke-linecap="round"/>
<path d="M127.09 67.5224C127.09 67.5012 127.086 67.4822 127.086 67.4611" stroke="white" stroke-linecap="round"/>
<path d="M126.811 67.7733C126.811 67.7335 126.803 67.6882 126.824 67.6557C126.832 67.6432 126.828 67.6249 126.838 67.6129C126.848 67.6013 126.849 67.5888 126.849 67.5743C126.849 67.5506 126.838 67.5166 126.868 67.5166C126.894 67.5166 126.92 67.5266 126.929 67.5541" stroke="white" stroke-linecap="round"/>
<path d="M126.768 67.5915C126.729 67.5915 126.742 67.5471 126.742 67.5166" stroke="white" stroke-linecap="round"/>
<path d="M126.619 67.5594C126.609 67.5582 126.613 67.5199 126.613 67.5113" stroke="white" stroke-linecap="round"/>
<path d="M126.79 67.6771C126.79 67.645 126.806 67.6297 126.806 67.5968C126.806 67.5676 126.811 67.541 126.811 67.5113" stroke="white" stroke-linecap="round"/>
<path d="M127.175 67.4685C127.175 67.4499 127.172 67.4283 127.159 67.415" stroke="white" stroke-linecap="round"/>
<path d="M158.091 68.1178C158.091 67.8984 158.084 67.6751 158.084 67.4539C158.084 67.3574 158.091 67.2591 158.091 67.1643C158.091 67.112 158.181 67.12 158.219 67.12C158.246 67.12 158.302 67.1096 158.245 67.1123C158.211 67.1139 158.178 67.12 158.143 67.12C158.084 67.12 158.025 67.12 157.965 67.12C157.959 67.12 157.929 67.125 157.935 67.1123C157.939 67.1034 157.952 67.0909 157.961 67.0897C157.991 67.086 158.023 67.0893 158.053 67.0893C158.084 67.0893 158.107 67.076 158.136 67.0739C158.164 67.0718 158.193 67.0739 158.222 67.0739C158.257 67.0739 158.291 67.0753 158.324 67.0624C158.351 67.052 158.266 67.0586 158.237 67.0586C158.169 67.0586 158.102 67.0586 158.034 67.0586C158.023 67.0586 157.962 67.0662 157.961 67.0509C157.959 67.0206 157.977 67.0049 158.009 67.0049C158.058 67.0049 158.102 67.0202 158.149 67.0202C158.175 67.0202 158.198 67.0279 158.224 67.0279C158.262 67.0279 158.268 67.0265 158.268 67.0663" stroke="white" stroke-linecap="round"/>
<path d="M158.375 67.9028C158.399 67.8497 158.383 67.7699 158.383 67.7135C158.383 67.6738 158.385 67.6338 158.383 67.5941C158.382 67.5637 158.369 67.516 158.357 67.4884C158.333 67.4359 158.337 67.3788 158.337 67.3213C158.337 67.2158 158.337 67.1103 158.337 67.0049" stroke="white" stroke-linecap="square"/>
</svg>
